<svg width="640" height="360" viewBox="0 0 640 360" fill="none" xmlns="http://www.w3.org/2000/svg" role="img" aria-labelledby="title desc">
  <title id="title">RPO Support</title>
  <desc id="desc">Abstract illustration for recruiting support and RPO services</desc>
  <rect width="640" height="360" rx="36" fill="#F8FBFF"/>
  <rect x="48" y="48" width="544" height="264" rx="28" fill="#FFFFFF" stroke="#DCEBFF" stroke-width="2"/>
  <circle cx="168" cy="154" r="46" fill="#EAF3FF"/>
  <circle cx="168" cy="138" r="22" fill="#0B2A6F"/>
  <path d="M124 218C132 190 148 176 168 176C188 176 204 190 212 218" fill="#1C7CFF"/>
  <rect x="278" y="98" width="220" height="30" rx="15" fill="#0B2A6F"/>
  <rect x="278" y="150" width="264" height="16" rx="8" fill="#BFD9FF"/>
  <rect x="278" y="184" width="220" height="16" rx="8" fill="#D7E8FF"/>
  <rect x="278" y="218" width="180" height="16" rx="8" fill="#D7E8FF"/>
  <circle cx="500" cy="230" r="42" fill="#EAF3FF"/>
  <path d="M480 230L495 245L523 210" stroke="#1C7CFF" stroke-width="10" stroke-linecap="round" stroke-linejoin="round"/>
  <path d="M236 180H264" stroke="#8DBDFF" stroke-width="5" stroke-linecap="round"/>
  <path d="M236 180C248 180 252 154 266 154" stroke="#8DBDFF" stroke-width="5" stroke-linecap="round"/>
  <path d="M236 180C248 180 252 206 266 206" stroke="#8DBDFF" stroke-width="5" stroke-linecap="round"/>
  <text x="320" y="290" text-anchor="middle" fill="#0B2A6F" font-family="Arial, sans-serif" font-size="28" font-weight="800" letter-spacing="3">RPO SUPPORT</text>
</svg>
